<?xml version="1.0" encoding="UTF-8" standalone="no"?><!DOCTYPE svg PUBLIC "-//W3C//DTD SVG 1.1//EN" "http://www.w3.org/Graphics/SVG/1.1/DTD/svg11.dtd"><svg width="100%" height="100%" viewBox="0 0 10417 6667" version="1.1" xmlns="http://www.w3.org/2000/svg" xmlns:xlink="http://www.w3.org/1999/xlink" xml:space="preserve" xmlns:serif="http://www.serif.com/" style="fill-rule:evenodd;clip-rule:evenodd;stroke-linejoin:round;stroke-miterlimit:2;"><g><rect x="0" y="0" width="10416.7" height="6666.67" style="fill:#f3f2f3;"/><path d="M5667.83,4569.25l302.75,-524.338l302.75,-524.358l1210.92,0l302.75,524.358l302.75,524.338l-302.75,524.375l-302.75,524.333l-1210.92,0l-302.75,-524.333l-302.75,-524.375Z" style="fill:#fff;"/><path d="M7484.25,5617.96l302.75,-524.333l302.75,-524.375l1210.92,-0l302.751,524.375l302.708,524.333l-302.708,524.375l-302.751,524.334l-1210.92,-0l-302.75,-524.334l-302.75,-524.375Z" style="fill:#d1d3d4;"/><path d="M5667.83,6666.67l302.75,-524.334l302.75,-524.375l1210.92,0l302.75,524.375l302.75,524.334l-2421.92,-0Z" style="fill:#e6e7e8;"/><path d="M9300.67,4569.25l302.751,-524.338l302.708,-524.358l510.542,0l-0,2097.4l-510.542,0l-302.708,-524.333l-302.751,-524.375Z" style="fill:#e6e7e8;"/><path d="M7620.33,4842.96l151.542,-262.5l151.542,-262.496l606.208,0l151.583,262.496l151.542,262.5l-151.542,262.5l-151.583,262.5l-606.208,0l-303.084,-525Z" style="fill:#d1d3d4;"/><path d="M7180.38,6142.96l151.584,-262.5l151.541,-262.5l606.208,0l151.542,262.5l151.583,262.5l-151.583,262.5l-150.792,261.209l-607.708,-0l-150.791,-261.209l-151.584,-262.5Z" style="fill:#f3f2f3;"/><path d="M7776,5112.62l11,-19l302.75,-524.375l585,-0l6.458,11.208l151.542,262.5l-151.542,262.5l-151.583,262.5l-606.208,0l-147.417,-255.333Z" style="fill:#e6e7e8;"/><path d="M8693.71,5617.96l151.542,-262.5l151.542,-262.5l606.208,0l151.584,262.5l151.541,262.5l-151.541,262.5l-150.834,261.209l-607.708,-0l-150.792,-261.209l-151.542,-262.5Z" style="fill:#e0dede;"/><path d="M8089.75,6666.67l303.083,-525l606.209,-0l151.583,262.5l151.542,262.5l-1212.42,-0Z" style="fill:#e0dede;"/><path d="M8987.46,6118.92l302.75,-524.375l302.709,-524.334l6,-10.416l817.75,-0l-0,41.666l-793.792,0l-296.708,513.917l-296.75,513.958l296.75,513.917l13.5,23.417l-48,-0l-1.459,-2.584l-302.75,-524.333l-6.041,-10.417l6.041,-10.416Z" style="fill:#fff;"/><path d="M9300.67,4421.67c81.501,-0 147.584,66.083 147.584,147.583c0,81.542 -66.083,147.583 -147.584,147.583c-81.499,0 -147.583,-66.041 -147.583,-147.583c0,-81.5 66.084,-147.583 147.583,-147.583Z" style="fill:#fff;"/><path d="M7944.62,4317.96l145.125,251.288l-302.75,524.375l-11,19l-4.125,-7.167l-151.542,-262.5l151.542,-262.5l151.542,-262.496l21.208,0Z" style="fill:#e0dede;"/><path d="M7483.5,5617.96l0.75,0l302.75,524.375l302.75,524.334l-607,-0l-150.791,-261.209l-151.584,-262.5l151.584,-262.5l151.541,-262.5Z" style="fill:#fff;"/><path d="M5669.5,5618.58l150.958,-262.458l150.959,-262.5l603.792,0l150.958,262.5l150.958,262.458l-150.958,262.542l-150.209,261.208l-605.291,0l-150.209,-261.208l-150.958,-262.542Z" style="fill:#d1d3d4;"/><path d="M6876.75,5617.96l-603.417,0l-302.333,-523.625l0.417,-0.708l603.792,0l150.958,262.5l150.583,261.833Z" style="fill:#e6e7e8;"/><path d="M5970.62,6142.25l302.708,-524.292l603.417,0l0.375,0.625l-150.958,262.542l-150.209,261.208l-605.291,0l-0.042,-0.083Z" style="fill:#fff;"/><path d="M7677.79,5365.88l-145.542,252.083l145.542,252.084l144.792,250.791l583.749,0l144.792,-250.791l145.583,-252.084l-145.583,-252.083l-145.5,-252.083l-582.292,-0l-145.541,252.083Zm-187.542,241.667l151.583,-262.5l151.542,-262.5l6,-10.417l630.167,-0l6.041,10.417l151.538,262.5l151.546,262.5l6.041,10.416l-6.041,10.417l-151.546,262.5l-150.829,261.208l-6,10.417l-631.667,-0l-6,-10.417l-150.792,-261.208l-151.583,-262.5l-6,-10.417l6,-10.416Z" style="fill:#fff;"/><path d="M8114.46,5469.71c81.542,0 147.584,66.084 147.584,147.625c-0,81.5 -66.042,147.584 -147.584,147.584c-81.5,-0 -147.583,-66.084 -147.583,-147.584c0,-81.541 66.083,-147.625 147.583,-147.625Z" style="fill:#fff;"/><path d="M2299.24,1048.7l302.737,-524.346l302.733,-524.35l1210.94,0l302.729,524.35l302.75,524.346l-302.75,524.35l-302.729,524.35l-1210.94,-0l-302.733,-524.35l-302.737,-524.35Z" style="fill:#fff;"/><path d="M482.829,0l302.738,524.35l302.729,524.346l1210.94,-0l302.737,-524.346l302.733,-524.35l-2421.88,0Z" style="fill:#f3f2f3;"/><path d="M482.829,2097.4l302.738,-524.35l302.729,-524.35l1210.94,-0l302.737,524.35l302.733,524.35l-302.733,524.354l-302.737,524.35l-1210.94,0l-302.729,-524.35l-302.738,-524.354Z" style="fill:#e6e7e8;"/><path d="M0,0l482.829,0l302.738,524.35l302.729,524.346l-302.729,524.35l-302.738,524.35l-482.829,-0l0,-2097.4Z" style="fill:#d1d3d4;"/><path d="M1695.12,1048.7l150.954,-262.5l150.959,-262.496l603.816,-0l150.954,262.496l150.959,262.5l-150.959,262.504l-150.208,261.2l-605.308,-0l-150.213,-261.2l-150.954,-262.504Z" style="fill:#d1d3d4;"/><path d="M1695.12,1048.7l604.113,-0l302.362,523.704l-605.308,-0l-150.213,-261.2l-150.954,-262.504Z" style="fill:#f3f2f3;"/><path d="M1695.12,1048.7l604.113,-0l302.362,-523.7l-0.746,-1.296l-603.816,-0l-150.959,262.496l-150.954,262.5Z" style="fill:#fff;"/><path d="M1088.29,3146.1l302.745,-524.35l302.734,-524.354l1210.94,-0l302.734,524.354l302.733,524.35l-302.733,524.342l-302.734,524.35l-1210.94,-0l-302.734,-524.35l-302.745,-524.342Z" style="fill:#e6e7e8;"/><path d="M2904.71,2097.4l-302.733,524.346l-302.737,524.35l-1210.94,0l-0,-0.004l302.741,-524.346l302.734,-524.354l1210.94,-0l0,0.008Z" style="fill:#d1d3d4;"/><path d="M2904.71,2097.4l302.734,524.354l302.733,524.35l-302.733,524.342l-302.734,524.35l-302.741,-524.35l-302.738,-524.342l302.738,-524.35l302.741,-524.354Z" style="fill:#fff;"/><path d="M1257.09,1845.97l-145.541,252.083l145.541,252.075l144.788,250.796l583.779,-0l144.788,-250.796l145.554,-252.075l-145.554,-252.083l-145.534,-252.084l-582.283,0l-145.538,252.084Zm-187.52,241.666l151.554,-262.504l151.55,-262.5l6.021,-10.412l630.154,-0l6.008,10.412l151.554,262.5l151.563,262.504l6.012,10.417l-6.012,10.421l-151.563,262.492l-150.804,261.204l-6.012,10.412l-631.655,0l-6.008,-10.412l-150.808,-261.204l-151.554,-262.492l-6.021,-10.421l6.021,-10.417Z" style="fill:#fff;"/><path d="M1429.22,547.767l-302.738,524.35l-302.733,524.35l-6.008,10.412l-817.738,0l0,-41.666l793.788,-0l296.72,-513.93l296.73,-513.937l-296.73,-513.929l-13.516,-23.417l47.996,-0l1.491,2.579l302.738,524.35l6.016,10.417l-6.016,10.421Z" style="fill:#fff;"/><path d="M1693.77,1949.81c81.504,0 147.575,66.075 147.575,147.584c-0,81.512 -66.071,147.587 -147.575,147.587c-81.517,0 -147.588,-66.075 -147.588,-147.587c0,-81.509 66.071,-147.584 147.588,-147.584Z" style="fill:#fff;"/><path d="M178.221,524.996l151.554,-262.5l151.563,-262.496l606.216,0l151.554,262.496l151.563,262.5l-151.563,262.504l-150.812,261.196l-607.713,-0l-150.808,-261.196l-151.554,-262.504Z" style="fill:#e6e7e8;"/><path d="M481.338,0l1.491,0l302.738,524.35l302.729,524.346l-607.713,-0l-150.808,-261.196l-151.554,-262.504l151.554,-262.5l151.563,-262.496Z" style="fill:#f3f2f3;"/><path d="M3508.68,1048.7l151.55,-262.5l151.554,-262.496l606.217,-0l151.541,262.496l151.584,262.5l-151.584,262.504l-150.791,261.2l-607.713,-0l-150.808,-261.2l-151.55,-262.504Z" style="fill:#e6e7e8;"/><path d="M4585.04,1823.7l-151.542,262.504l-151.541,262.5l-606.234,0l-151.55,-262.5l-151.562,-262.504l151.562,-262.5l151.55,-262.496l606.234,0l151.541,262.496l151.542,262.5Z" style="fill:#d1d3d4;"/><path d="M4429.38,1554.03l-11,19.013l-302.729,524.35l-585.013,-0l-6.458,-11.179l-151.562,-262.513l151.562,-262.5l151.55,-262.496l606.234,0l147.416,255.325Z" style="fill:#f3f2f3;"/><path d="M4260.75,2348.71l-145.104,-251.312l302.729,-524.35l11,-19.013l4.125,7.171l151.542,262.5l-151.542,262.513l-151.541,262.491l-21.209,0Z" style="fill:#e6e7e8;"/><path d="M4429.33,1554.03l-10.583,18.375l-607.713,-0l-146.662,-254.034l11.35,-19.658l606.234,0l147.374,255.317Z" style="fill:#e0dede;"/><path d="M482.829,1949.81c81.508,0 147.579,66.075 147.579,147.584c0,81.512 -66.071,147.587 -147.579,147.587c-81.516,0 -147.583,-66.075 -147.583,-147.587c-0,-81.509 66.067,-147.584 147.583,-147.584Z" style="fill:#fff;"/><path d="M5998.5,0l4418.17,0l-0,2904.18c-850.125,-65.104 -894.667,-813.804 -1272.25,-1451.82c-377.624,-638.034 -1406.25,-488.292 -2265.62,-657.563c-583.792,-114.983 -801,-536.325 -880.292,-794.796Z" style="fill:#d1d3d4;"/><path d="M6403.38,0l4013.29,0l-0,2538.87c-1084.54,-294.342 -824,-1242.43 -1694.96,-1559.71c-352.375,-128.363 -830.708,-158.363 -1429.62,-325.763c-596.833,-166.813 -811.458,-461.15 -888.708,-653.396Z" style="fill:#e6e7e8;"/><path d="M7406.25,0l3010.42,0l-0,1768.83c-298.042,-101.954 -537.208,-261.171 -751.833,-555.191c-481.793,-659.717 -1115.46,-677.083 -1675.33,-789.934c-336.166,-67.745 -503.333,-271.596 -583.25,-423.708Z" style="fill:#fff;"/><path d="M9044.58,0l1372.08,0l-0,813.013c-804.542,-36.067 -1195.5,-491.88 -1372.08,-813.013Z" style="fill:#f3f2f3;"/><path d="M6488.46,432.492c119.042,-0 215.584,96.512 215.584,215.575c-0,119.05 -96.542,215.562 -215.584,215.562c-119.041,0 -215.583,-96.512 -215.583,-215.562c-0,-119.063 96.542,-215.575 215.583,-215.575Z" style="fill:#fff;"/><path d="M10018.8,2223.83c81.5,0 147.583,66.079 147.583,147.588c-0,81.508 -66.083,147.587 -147.583,147.587c-81.542,0 -147.583,-66.079 -147.583,-147.587c-0,-81.509 66.041,-147.588 147.583,-147.588Z" style="fill:#fff;"/><path d="M4634.67,0c334.875,1171.38 1395.42,1260.45 2407.96,1345.27c1045,87.533 2039.54,170.854 2160.71,1410.49c87.75,897.854 773.791,1173.23 1213.33,1257.34l-0,42.095c-450.667,-84.483 -1163.79,-365.362 -1254.67,-1295.53c-117.75,-1204.93 -1095.5,-1286.85 -2122.79,-1372.9c-1030.92,-86.354 -2110.87,-177.07 -2447.92,-1386.76l43.374,0Z" style="fill:#d1d3d4;"/><path d="M5006.46,0l42.666,0c184.959,998.746 1184.33,1102.1 2155.54,1202.32c586.333,60.5 1162.54,119.962 1550.17,372.77c438.75,286.147 565.209,704.513 683.458,1095.8c145.126,480.075 277.709,918.438 978.376,1003.63l-0,41.98c-731.792,-85.975 -868.5,-538.192 -1018.25,-1033.56c-116.167,-384.354 -240.376,-795.279 -666.209,-1073.01c-379.25,-247.329 -950.458,-306.283 -1531.79,-366.267c-990.667,-102.229 -2010.21,-207.629 -2193.96,-1243.65Z" style="fill:#d1d3d4;"/><path d="M4464.67,6666.67l-4464.67,-0l0,-3063.73c1440.43,47.321 728.396,1883.53 3000.7,1938.03c1254.26,30.125 1438.3,866.459 1463.97,1125.71Z" style="fill:#e6e7e8;"/><path d="M3334.09,6666.67l-3334.09,-0l0,-2199.46c1062.28,150.667 714.367,1179.29 2447.72,1462.62c636.138,104 828.321,507.542 886.367,736.834Z" style="fill:#fff;"/><path d="M1828.76,6666.67l-1828.76,-0l0,-926.959c1080.02,-8.458 1603.85,560.834 1828.76,926.959Z" style="fill:#f3f2f3;"/><path d="M4464.67,6666.67l-506.142,-0c-182.304,-709.542 -668.404,-844.292 -1536.46,-1043.96c-868.054,-199.625 -1098.09,-590.25 -1467.01,-1184.88c-274.6,-442.579 -736.671,-553.308 -955.05,-581.008l-0,-355.937c1451.98,293.97 759.854,1986.32 3000.7,2040.07c1254.26,30.125 1438.3,866.459 1463.97,1125.71Z" style="fill:#d1d3d4;"/><path d="M4056.7,5660.21c121.804,0 220.554,98.75 220.554,220.584c0,121.791 -98.75,220.541 -220.554,220.541c-121.817,0 -220.559,-98.75 -220.559,-220.541c0,-121.834 98.742,-220.584 220.559,-220.584Z" style="fill:#fff;"/><path d="M381.467,3810.33c81.512,0 147.591,66.071 147.591,147.588c0,81.517 -66.079,147.587 -147.591,147.587c-81.513,0 -147.588,-66.07 -147.588,-147.587c0,-81.517 66.075,-147.588 147.588,-147.588Z" style="fill:#fff;"/><path d="M5096.17,6666.67l-42.75,-0c-336.416,-1329 -1041.83,-1367.92 -1817.39,-1410.71c-619.117,-34.166 -1282.18,-70.75 -1844.23,-748c-149.899,-180.621 -247.583,-354.912 -338.229,-516.671c-206.77,-368.991 -376.475,-671.712 -1053.56,-819.983l0,-42.621c702.287,150.909 876.9,462.246 1089.85,842.259c89.913,160.437 186.796,333.308 333.85,510.516c550.442,663.25 1204.18,699.334 1814.59,733c793.808,43.792 1515.59,83.792 1857.88,1452.21Z" style="fill:#d1d3d4;"/><path d="M5416.83,6666.67l-43.166,-0c-96.042,-334.917 -403.75,-1180.38 -1114.29,-1426.33c-359.954,-124.625 -711.546,-147.791 -1048.87,-170c-507.683,-33.458 -983.425,-64.791 -1414.48,-432.791c-297.867,-254.292 -468.846,-539.48 -632.646,-812.713c-253.966,-423.616 -490.579,-818.091 -1163.38,-1015.71l0,-43.35c697.062,200.508 939.063,604.129 1199.02,1037.75c162.062,270.333 331.225,552.521 624.025,802.437c420.5,358.959 889.546,389.875 1390.08,422.875c339.933,22.375 694.254,45.75 1059.8,172.292c736.667,255 1049.71,1132.58 1143.92,1465.54Z" style="fill:#d1d3d4;"/></g></svg>