<?xml version="1.0" encoding="UTF-8" standalone="no"?>
<!DOCTYPE svg PUBLIC "-//W3C//DTD SVG 1.1//EN" "http://www.w3.org/Graphics/SVG/1.1/DTD/svg11.dtd">
<svg width="100%" height="100%" viewBox="0 0 10417 6667" version="1.1" xmlns="http://www.w3.org/2000/svg" xmlns:xlink="http://www.w3.org/1999/xlink" xml:space="preserve" xmlns:serif="http://www.serif.com/" style="fill-rule:evenodd;clip-rule:evenodd;stroke-linejoin:round;stroke-miterlimit:2;">
    <g>
        <rect x="0" y="0" width="10416.7" height="6666.67" style="fill:rgb(28,31,34);"/>
        <path d="M5667.83,4569.25L5970.58,4044.91L6273.33,3520.55L7484.25,3520.55L7787,4044.91L8089.75,4569.25L7787,5093.62L7484.25,5617.96L6273.33,5617.96L5970.58,5093.62L5667.83,4569.25Z" style="fill:rgb(48,48,48);"/>
        <path d="M7484.25,5617.96L7787,5093.63L8089.75,4569.25L9300.67,4569.25L9603.42,5093.63L9906.13,5617.96L9603.42,6142.34L9300.67,6666.67L8089.75,6666.67L7787,6142.34L7484.25,5617.96Z" style="fill:rgb(32,32,32);"/>
        <path d="M5667.83,6666.67L5970.58,6142.34L6273.33,5617.96L7484.25,5617.96L7787,6142.34L8089.75,6666.67L5667.83,6666.67Z" style="fill:rgb(37,37,37);"/>
        <path d="M9300.67,4569.25L9603.42,4044.91L9906.13,3520.55L10416.7,3520.55L10416.7,5617.95L9906.13,5617.95L9603.42,5093.62L9300.67,4569.25L9300.67,4569.25Z" style="fill:rgb(58,58,58);"/>
        <path d="M7620.33,4842.96L7771.87,4580.46L7923.41,4317.96L8529.62,4317.96L8681.2,4580.46L8832.75,4842.96L8681.2,5105.46L8529.62,5367.96L7923.41,5367.96L7620.33,4842.96Z" style="fill:rgb(74,74,74);"/>
        <path d="M7180.38,6142.96L7331.96,5880.46L7483.51,5617.96L8089.71,5617.96L8241.26,5880.46L8392.84,6142.96L8241.26,6405.46L8090.46,6666.67L7482.76,6666.67L7331.96,6405.46L7180.38,6142.96Z" style="fill:rgb(44,44,44);"/>
        <path d="M7776,5112.62L7787,5093.62L8089.75,4569.24L8674.75,4569.24L8681.21,4580.45L8832.75,4842.95L8681.21,5105.45L8529.62,5367.95L7923.42,5367.95L7776,5112.62Z" style="fill:rgb(52,53,54);"/>
        <path d="M8693.71,5617.96L8996.79,5092.96L9603,5092.96L9754.59,5355.46L9906.13,5617.96L9754.59,5880.46L9603.75,6141.67L8996.04,6141.67L8845.25,5880.46L8693.71,5617.96Z" style="fill:rgb(53,53,53);"/>
        <path d="M8089.75,6666.67L8392.83,6141.67L8999.04,6141.67L9150.62,6404.17L9302.17,6666.67L8089.75,6666.67L8089.75,6666.67Z" style="fill:rgb(62,62,62);"/>
        <path d="M8987.46,6118.92L9290.21,5594.55L9592.92,5070.21L9598.92,5059.8L10416.7,5059.8L10416.7,5101.46L9622.88,5101.46L9326.17,5615.38L9029.42,6129.34L9326.17,6643.25L9339.67,6666.67L9291.67,6666.67L9290.21,6664.09L8987.46,6139.75L8981.42,6129.34L8987.46,6118.92Z" style="fill:rgb(102,102,102);"/>
        <path d="M9300.67,4421.67C9382.17,4421.67 9448.25,4487.75 9448.25,4569.25C9448.25,4650.8 9382.17,4716.84 9300.67,4716.84C9219.17,4716.84 9153.09,4650.8 9153.09,4569.25C9153.09,4487.75 9219.17,4421.67 9300.67,4421.67Z" style="fill:rgb(71,71,71);"/>
        <path d="M7944.62,4317.96L8089.74,4569.25L7786.99,5093.62L7775.99,5112.62L7771.87,5105.46L7620.33,4842.96L7771.87,4580.46L7923.41,4317.96L7944.62,4317.96Z" style="fill:rgb(66,66,66);"/>
        <path d="M7483.5,5617.96L7484.25,5617.96L7787,6142.34L8089.75,6666.67L7482.75,6666.67L7331.96,6405.46L7180.38,6142.96L7331.96,5880.46L7483.5,5617.96Z" style="fill:rgb(59,59,59);"/>
        <path d="M5669.5,5618.58L5820.46,5356.12L5971.42,5093.62L6575.21,5093.62L6726.17,5356.12L6877.12,5618.58L6726.17,5881.12L6575.96,6142.33L5970.67,6142.33L5820.46,5881.12L5669.5,5618.58Z" style="fill:rgb(57,59,60);"/>
        <path d="M6876.75,5617.96L6273.33,5617.96L5971,5094.34L5971.42,5093.63L6575.21,5093.63L6726.17,5356.13L6876.75,5617.96Z" style="fill:rgb(112,112,112);"/>
        <path d="M5970.62,6142.25L6273.33,5617.96L6876.74,5617.96L6877.12,5618.58L6726.16,5881.12L6575.95,6142.33L5970.66,6142.33L5970.62,6142.25Z" style="fill:rgb(86,86,86);"/>
        <path d="M7677.79,5365.88L7532.25,5617.96L7677.79,5870.05L7822.58,6120.84L8406.33,6120.84L8551.12,5870.05L8696.71,5617.96L8551.12,5365.88L8405.62,5113.8L7823.33,5113.8L7677.79,5365.88ZM7490.25,5607.55L7641.83,5345.05L7793.37,5082.55L7799.37,5072.13L8429.54,5072.13L8435.58,5082.55L8587.12,5345.05L8738.67,5607.55L8744.71,5617.96L8738.67,5628.38L8587.12,5890.88L8436.29,6152.09L8430.29,6162.51L7798.62,6162.51L7792.62,6152.09L7641.83,5890.88L7490.25,5628.38L7484.25,5617.96L7490.25,5607.55Z" style="fill:rgb(78,78,78);"/>
        <path d="M8114.46,5469.71C8196,5469.71 8262.04,5535.79 8262.04,5617.34C8262.04,5698.84 8196,5764.92 8114.46,5764.92C8032.96,5764.92 7966.88,5698.84 7966.88,5617.34C7966.88,5535.79 8032.96,5469.71 8114.46,5469.71Z" style="fill:rgb(82,80,80);"/>
        <path d="M2299.24,1048.7L2601.98,524.354L2904.71,0.004L4115.65,0.004L4418.38,524.354L4721.13,1048.7L4418.38,1573.05L4115.65,2097.4L2904.71,2097.4L2601.98,1573.05L2299.24,1048.7Z" style="fill:rgb(51,51,51);"/>
        <path d="M482.829,0L785.567,524.35L1088.3,1048.7L2299.24,1048.7L2601.97,524.35L2904.71,-0L482.826,-0L482.829,0Z" style="fill:rgb(37,37,37);"/>
        <path d="M482.829,2097.4L785.567,1573.05L1088.3,1048.7L2299.24,1048.7L2601.97,1573.05L2904.71,2097.4L2601.97,2621.75L2299.24,3146.1L1088.3,3146.1L785.567,2621.75L482.829,2097.4Z" style="fill:rgb(48,50,52);"/>
        <path d="M0,0L482.829,0L785.567,524.35L1088.3,1048.7L785.567,1573.05L482.829,2097.4L0,2097.4L0,-0.004L0,0Z" style="fill:rgb(34,34,34);"/>
        <path d="M1695.12,1048.7L1846.07,786.2L1997.03,523.704L2600.85,523.704L2751.8,786.2L2902.76,1048.7L2751.8,1311.2L2601.6,1572.4L1996.29,1572.4L1846.07,1311.2L1695.12,1048.7Z" style="fill:rgb(36,36,36);"/>
        <path d="M1695.12,1048.7L2299.23,1048.7L2601.6,1572.4L1996.29,1572.4L1846.07,1311.2L1695.12,1048.7Z" style="fill:rgb(49,49,49);"/>
        <path d="M1695.12,1048.7L2299.23,1048.7L2601.6,525L2600.85,523.704L1997.03,523.704L1846.07,786.2L1695.12,1048.7Z" style="fill:rgb(38,37,37);"/>
        <path d="M1088.29,3146.1L1391.04,2621.75L1693.77,2097.4L2904.71,2097.4L3207.44,2621.75L3510.18,3146.1L3207.44,3670.44L2904.71,4194.79L1693.77,4194.79L1391.04,3670.44L1088.29,3146.1Z" style="fill:rgb(49,49,49);"/>
        <path d="M2904.71,2097.4L2601.98,2621.75L2299.24,3146.1L1088.3,3146.1L1088.3,3146.09L1391.04,2621.75L1693.78,2097.39L2904.72,2097.39L2904.72,2097.4L2904.71,2097.4Z" style="fill:rgb(94,94,94);"/>
        <path d="M2904.71,2097.4L3207.44,2621.75L3510.18,3146.1L3207.44,3670.45L2904.71,4194.8L2601.97,3670.45L2299.23,3146.1L2601.97,2621.75L2904.71,2097.4Z" style="fill:rgb(88,88,88);"/>
        <path d="M1257.09,1845.97L1111.55,2098.05L1257.09,2350.13L1401.88,2600.92L1985.66,2600.92L2130.45,2350.13L2276,2098.05L2130.45,1845.97L1984.91,1593.89L1402.63,1593.89L1257.09,1845.97ZM1069.57,2087.64L1221.12,1825.13L1372.67,1562.63L1378.69,1552.22L2008.85,1552.22L2014.86,1562.63L2166.41,1825.13L2317.97,2087.64L2323.99,2098.05L2317.97,2108.47L2166.41,2370.97L2015.61,2632.17L2009.6,2642.58L1377.94,2642.58L1371.93,2632.17L1221.12,2370.97L1069.57,2108.47L1063.55,2098.05L1069.57,2087.64Z" style="fill:rgb(79,79,79);"/>
        <path d="M1429.22,547.767L1126.48,1072.12L823.749,1596.47L817.741,1606.88L0.003,1606.88L0.003,1565.21L793.791,1565.21L1090.51,1051.28L1387.24,537.346L1090.51,23.417L1077,0L1124.99,0L1126.48,2.579L1429.22,526.929L1435.24,537.346L1429.22,547.767Z" style="fill:rgb(78,78,78);"/>
        <path d="M1693.77,1949.81C1775.27,1949.81 1841.35,2015.88 1841.35,2097.39C1841.35,2178.91 1775.27,2244.98 1693.77,2244.98C1612.25,2244.98 1546.18,2178.91 1546.18,2097.39C1546.18,2015.88 1612.25,1949.81 1693.77,1949.81Z" style="fill:rgb(107,104,104);"/>
        <path d="M178.221,524.996L329.775,262.496L481.338,0L1087.55,0L1239.11,262.496L1390.67,524.996L1239.11,787.5L1088.3,1048.7L480.583,1048.7L329.775,787.5L178.221,524.996Z" style="fill:rgb(48,48,48);"/>
        <path d="M481.338,0L482.829,0L785.567,524.35L1088.3,1048.7L480.583,1048.7L329.775,787.5L178.221,524.996L329.775,262.496L481.338,-0Z" style="fill:rgb(62,59,63);"/>
        <path d="M3508.68,1048.7L3660.23,786.2L3811.78,523.704L4418,523.704L4569.54,786.2L4721.13,1048.7L4569.54,1311.2L4418.75,1572.4L3811.04,1572.4L3660.23,1311.2L3508.68,1048.7Z" style="fill:rgb(97,97,97);"/>
        <path d="M4585.04,1823.7L4433.5,2086.2L4281.96,2348.7L3675.72,2348.7L3524.17,2086.2L3372.61,1823.7L3524.17,1561.2L3675.72,1298.7L4281.96,1298.7L4433.5,1561.2L4585.04,1823.7Z" style="fill:rgb(60,61,62);"/>
        <path d="M4429.38,1554.03L4418.38,1573.04L4115.65,2097.39L3530.64,2097.39L3524.18,2086.21L3372.62,1823.7L3524.18,1561.2L3675.73,1298.7L4281.96,1298.7L4429.38,1554.03Z" style="fill:rgb(32,32,32);"/>
        <path d="M4260.75,2348.71L4115.65,2097.4L4418.38,1573.05L4429.38,1554.04L4433.5,1561.21L4585.04,1823.71L4433.5,2086.22L4281.96,2348.71L4260.75,2348.71Z" style="fill:rgb(92,92,92);"/>
        <path d="M4429.33,1554.03L4418.75,1572.4L3811.03,1572.4L3664.37,1318.37L3675.72,1298.71L4281.96,1298.71L4429.33,1554.03Z" style="fill:rgb(50,50,50);"/>
        <path d="M482.829,1949.81C564.337,1949.81 630.408,2015.88 630.408,2097.39C630.408,2178.91 564.337,2244.98 482.829,2244.98C401.313,2244.98 335.246,2178.91 335.246,2097.39C335.246,2015.88 401.313,1949.81 482.829,1949.81Z" style="fill:rgb(78,76,76);"/>
        <path d="M5998.5,0L10416.7,0L10416.7,2904.18C9566.55,2839.08 9522,2090.38 9144.42,1452.36C8766.8,814.326 7738.17,964.068 6878.8,794.797C6295.01,679.814 6077.8,258.472 5998.51,0.001L5998.5,0Z" style="fill:rgb(28,31,33);"/>
        <path d="M6403.38,0L10416.7,0L10416.7,2538.87C9332.13,2244.53 9592.67,1296.44 8721.71,979.16C8369.34,850.797 7891,820.797 7292.09,653.397C6695.26,486.584 6480.63,192.247 6403.38,0.001L6403.38,0Z" style="fill:rgb(47,47,47);"/>
        <path d="M7406.25,0L10416.7,0L10416.7,1768.83C10118.6,1666.88 9879.46,1507.66 9664.84,1213.64C9183.04,553.922 8549.38,536.556 7989.51,423.705C7653.34,355.96 7486.17,152.109 7406.26,-0.003L7406.25,0Z" style="fill:rgb(74,70,70);"/>
        <path d="M9044.58,0L10416.7,0L10416.7,813.013C9612.12,776.946 9221.16,321.133 9044.58,0Z" style="fill:rgb(55,55,55);"/>
        <path d="M6488.46,432.492C6607.5,432.492 6704.04,529.004 6704.04,648.067C6704.04,767.117 6607.5,863.629 6488.46,863.629C6369.42,863.629 6272.88,767.117 6272.88,648.067C6272.88,529.004 6369.42,432.492 6488.46,432.492Z" style="fill:rgb(74,74,74);"/>
        <path d="M10018.8,2223.83C10100.3,2223.83 10166.4,2289.91 10166.4,2371.42C10166.4,2452.93 10100.3,2519.01 10018.8,2519.01C9937.26,2519.01 9871.22,2452.93 9871.22,2371.42C9871.22,2289.91 9937.26,2223.83 10018.8,2223.83Z" style="fill:rgb(75,73,73);"/>
        <path d="M4634.67,0C4969.55,1171.38 6030.09,1260.45 7042.63,1345.27C8087.63,1432.8 9082.17,1516.12 9203.34,2755.76C9291.09,3653.61 9977.13,3928.99 10416.7,4013.1L10416.7,4055.2C9966,3970.71 9252.88,3689.83 9162,2759.66C9044.25,1554.74 8066.5,1472.82 7039.21,1386.77C6008.29,1300.41 4928.34,1209.69 4591.29,0.005L4634.66,0.005L4634.67,0Z" style="fill:rgb(77,77,77);"/>
        <path d="M5006.46,0L5049.13,0C5234.09,998.746 6233.46,1102.1 7204.67,1202.32C7791,1262.82 8367.21,1322.28 8754.84,1575.09C9193.59,1861.24 9320.05,2279.6 9438.29,2670.89C9583.42,3150.97 9716,3589.33 10416.7,3674.52L10416.7,3716.5C9684.88,3630.53 9548.17,3178.31 9398.42,2682.94C9282.25,2298.59 9158.04,1887.66 8732.21,1609.93C8352.96,1362.6 7781.75,1303.65 7200.42,1243.66C6209.75,1141.43 5190.21,1036.03 5006.46,0.013L5006.46,0Z" style="fill:rgb(94,94,94);"/>
        <path d="M4464.67,6666.67L0,6666.67L0,3602.94C1440.43,3650.26 728.396,5486.47 3000.7,5540.97C4254.96,5571.1 4439,6407.43 4464.67,6666.68L4464.67,6666.67Z" style="fill:rgb(66,66,66);"/>
        <path d="M3334.09,6666.67L0,6666.67L0,4467.21C1062.28,4617.88 714.367,5646.5 2447.72,5929.83C3083.86,6033.83 3276.04,6437.37 3334.09,6666.66L3334.09,6666.67Z" style="fill:rgb(37,37,37);"/>
        <path d="M1828.76,6666.67L0,6666.67L0,5739.71C1080.02,5731.25 1603.85,6300.55 1828.76,6666.67Z" style="fill:rgb(22,22,22);"/>
        <path d="M4464.67,6666.67L3958.53,6666.67C3776.22,5957.13 3290.12,5822.38 2422.07,5622.71C1554.01,5423.09 1323.98,5032.46 955.058,4437.83C680.458,3995.25 218.387,3884.52 0.008,3856.82L0.008,3500.89C1451.99,3794.86 759.862,5487.2 3000.71,5540.95C4254.97,5571.08 4439.01,6407.41 4464.68,6666.66L4464.67,6666.67Z" style="fill:rgb(78,78,78);"/>
        <path d="M4056.7,5660.21C4178.5,5660.21 4277.25,5758.96 4277.25,5880.79C4277.25,6002.59 4178.5,6101.34 4056.7,6101.34C3934.88,6101.34 3836.14,6002.59 3836.14,5880.79C3836.14,5758.96 3934.88,5660.21 4056.7,5660.21Z" style="fill:rgb(56,56,56);"/>
        <path d="M381.467,3810.33C462.979,3810.33 529.058,3876.4 529.058,3957.92C529.058,4039.43 462.979,4105.51 381.467,4105.51C299.954,4105.51 233.879,4039.43 233.879,3957.92C233.879,3876.4 299.954,3810.33 381.467,3810.33Z" style="fill:rgb(46,46,46);"/>
        <path d="M5096.18,6666.67L5053.42,6666.67C4717,5337.67 4011.59,5298.75 3236.03,5255.96C2616.91,5221.79 1953.85,5185.21 1391.8,4507.96C1241.9,4327.34 1144.22,4153.05 1053.57,3991.29C846.801,3622.3 677.096,3319.58 0.011,3171.31L0.011,3128.68C702.298,3279.59 876.911,3590.93 1089.86,3970.94C1179.77,4131.38 1276.66,4304.25 1423.71,4481.46C1974.15,5144.71 2627.89,5180.79 3238.3,5214.46C4032.11,5258.25 4753.89,5298.25 5096.18,6666.67Z" style="fill:rgb(70,70,70);"/>
        <path d="M5416.84,6666.67L5373.66,6666.67C5277.62,6331.75 4969.91,5486.29 4259.37,5240.34C3899.42,5115.72 3547.83,5092.55 3210.5,5070.34C2702.82,5036.88 2227.08,5005.55 1796.02,4637.55C1498.16,4383.26 1327.18,4098.07 1163.38,3824.84C909.412,3401.22 672.799,3006.74 -0.002,2809.13L-0.002,2765.78C697.06,2966.28 939.061,3369.91 1199.02,3803.53C1361.08,4073.86 1530.24,4356.05 1823.04,4605.96C2243.54,4964.92 2712.59,4995.84 3213.12,5028.84C3553.06,5051.21 3907.38,5074.59 4272.92,5201.13C5009.59,5456.13 5322.63,6333.71 5416.84,6666.67Z" style="fill:rgb(48,48,48);"/>
    </g>
</svg>
