<?xml version="1.0" encoding="UTF-8" standalone="no"?>
<!DOCTYPE svg PUBLIC "-//W3C//DTD SVG 1.1//EN" "http://www.w3.org/Graphics/SVG/1.1/DTD/svg11.dtd">
<svg width="100%" height="100%" viewBox="0 0 256 50" version="1.1" xmlns="http://www.w3.org/2000/svg" xmlns:xlink="http://www.w3.org/1999/xlink" xml:space="preserve" xmlns:serif="http://www.serif.com/" style="fill-rule:evenodd;clip-rule:evenodd;stroke-linejoin:round;stroke-miterlimit:2;">
    <g transform="matrix(1.53741,0,0,1.53741,-1501.87,155.6)">
        <g transform="matrix(1,0,0,1,1118.08,-80.9007)">
            <path d="M0,-11.872L11.09,-11.872L11.09,-9.61L3.226,-9.61L3.226,-7.15L10.691,-7.15L10.691,-4.988L3.226,-4.988L3.226,-2.261L11.156,-2.261L11.156,0L0,0L0,-11.872Z" style="fill:rgb(112,107,109);fill-rule:nonzero;"/>
        </g>
        <g transform="matrix(1,0,0,1,1134.64,-86.6538)">
            <path d="M0,-0.366L-4.621,-6.119L-0.748,-6.119L1.863,-2.428L4.473,-6.119L8.349,-6.119L3.725,-0.366L8.763,5.753L4.755,5.753L1.863,1.746L-1.03,5.753L-5.038,5.753L0,-0.366Z" style="fill:rgb(112,107,109);fill-rule:nonzero;"/>
        </g>
        <g transform="matrix(1,0,0,1,1050.95,-80.9761)">
            <path d="M0,-11.872L11.09,-11.872L11.09,-9.611L3.226,-9.611L3.226,-7.15L10.691,-7.15L10.691,-4.988L3.226,-4.988L3.226,-2.261L11.157,-2.261L11.157,0L0,0L0,-11.872Z" style="fill:rgb(161,155,154);fill-rule:nonzero;"/>
        </g>
        <g transform="matrix(1,0,0,1,1063.43,-80.9761)">
            <path d="M0,-11.872L7.397,-11.872C11.472,-11.872 13.234,-9.51 13.234,-5.936C13.234,-2.361 11.406,0 7.681,0L0,0L0,-11.872ZM3.226,-2.261L6.817,-2.261C8.946,-2.261 9.91,-3.542 9.91,-6.053C9.91,-8.248 8.978,-9.611 6.517,-9.611L3.226,-9.611L3.226,-2.261Z" style="fill:rgb(161,155,154);fill-rule:nonzero;"/>
        </g>
        <g transform="matrix(1,0,0,1,1084.98,-80.6426)">
            <path d="M0,-12.538C6.384,-12.538 7.381,-8.747 7.381,-6.269C7.381,-3.793 6.384,0 0,0C-6.386,0 -7.383,-3.793 -7.383,-6.269C-7.383,-8.747 -6.386,-12.538 0,-12.538M0,-2.262C2.926,-2.262 3.959,-4.424 3.959,-6.269C3.959,-8.115 2.926,-10.277 0,-10.277C-2.927,-10.277 -3.959,-8.115 -3.959,-6.269C-3.959,-4.424 -2.927,-2.262 0,-2.262" style="fill:rgb(161,155,154);fill-rule:nonzero;"/>
        </g>
        <g transform="matrix(-0.479926,0.877309,0.877309,0.479926,1098.03,-81.7749)">
            <path d="M-6.61,-5.297L3.894,-5.297L2.386,-2.541L-4.845,-2.541L-6.61,-5.297Z" style="fill:rgb(196,89,157);fill-rule:nonzero;"/>
        </g>
        <g transform="matrix(0.479808,0.877373,0.877373,-0.479808,1098.02,-92.5831)">
            <path d="M1.461,-2.47L7.322,-2.47L4.165,2.465L-1.694,2.464L1.461,-2.47Z" style="fill:rgb(234,70,139);fill-rule:nonzero;"/>
        </g>
        <g transform="matrix(1,0,0,1,1094.66,-87.2449)">
            <path d="M0,6.344L2.485,6.344L4.714,2.272L3.47,0L0,6.344Z" style="fill:rgb(123,43,128);fill-rule:nonzero;"/>
        </g>
        <g transform="matrix(0.480286,-0.877112,-0.877112,-0.480286,1101.15,-83.0402)">
            <path d="M0.842,2.488L6.701,2.488L4.201,-1.42L-1.66,-1.422L0.842,2.488Z" style="fill:rgb(43,160,218);fill-rule:nonzero;"/>
        </g>
        <g transform="matrix(0.479926,0.877309,0.877309,-0.479926,1117.21,-89.2421)">
            <path d="M-3.14,-3.919L7.364,-3.919L5.857,-6.674L-1.374,-6.674L-3.14,-3.919Z" style="fill:rgb(237,90,116);fill-rule:nonzero;"/>
        </g>
        <g transform="matrix(-0.479808,0.877373,0.877373,0.479808,1108.11,-87.6428)">
            <path d="M-4.166,2.464L1.695,2.464L-1.463,-2.471L-7.322,-2.47L-4.166,2.464Z" style="fill:rgb(246,156,29);fill-rule:nonzero;"/>
        </g>
        <g transform="matrix(-1,0,0,1,1109.45,-87.2449)">
            <path d="M-4.714,6.344L-2.228,6.344L0,2.272L-1.244,0L-4.714,6.344Z" style="fill:rgb(227,31,62);fill-rule:nonzero;"/>
        </g>
        <g transform="matrix(-0.480155,-0.877184,-0.877184,0.480155,1106.19,-87.9743)">
            <path d="M-4.199,-1.421L1.66,-1.421L-0.841,2.487L-6.701,2.487L-4.199,-1.421Z" style="fill:rgb(252,206,7);fill-rule:nonzero;"/>
        </g>
        <g transform="matrix(1,0,0,1,1104.41,-80.9012)">
            <path d="M0,-5.141L-2.813,0L2.812,0L0,-5.141Z" style="fill:rgb(157,196,59);fill-rule:nonzero;"/>
        </g>
        <g transform="matrix(1,0,0,1,1122.83,-93.5074)">
            <path d="M0,-1.7L3.285,-1.7L0.682,0L-1.61,0L0,-1.7Z" style="fill:rgb(100,102,106);fill-rule:nonzero;"/>
        </g>
        <g transform="matrix(1,0,0,1,1050.99,-75.2574)">
            <path d="M0,-2.391L1.491,-2.391C2.311,-2.391 2.666,-1.915 2.666,-1.196C2.666,-0.476 2.298,0 1.547,0L0,0L0,-2.391ZM0.649,-0.455L1.374,-0.455C1.801,-0.455 1.995,-0.713 1.995,-1.219C1.995,-1.661 1.809,-1.936 1.314,-1.936L0.649,-1.936L0.649,-0.455Z" style="fill:rgb(161,155,154);fill-rule:nonzero;"/>
        </g>
        <g transform="matrix(1,0,0,1,1054.03,-75.2574)">
            <path d="M0,-2.391L2.234,-2.391L2.234,-1.936L0.649,-1.936L0.649,-1.44L2.154,-1.44L2.154,-1.004L0.649,-1.004L0.649,-0.455L2.246,-0.455L2.246,0L0,0L0,-2.391Z" style="fill:rgb(161,155,154);fill-rule:nonzero;"/>
        </g>
        <g transform="matrix(1,0,0,1,1058.66,-76.1615)">
            <path d="M0,-0.583C-0.06,-0.929 -0.345,-1.099 -0.683,-1.099C-1.299,-1.099 -1.43,-0.616 -1.43,-0.292C-1.43,0.034 -1.299,0.516 -0.683,0.516C-0.368,0.516 -0.063,0.365 0,-0.013L0.709,-0.013C0.626,0.683 0.053,0.971 -0.707,0.971C-1.577,0.971 -2.12,0.596 -2.12,-0.292C-2.12,-1.179 -1.577,-1.554 -0.707,-1.554C-0.13,-1.554 0.604,-1.407 0.7,-0.583L0,-0.583Z" style="fill:rgb(161,155,154);fill-rule:nonzero;"/>
        </g>
        <g transform="matrix(1,0,0,1,581.4,-806.448)">
            <rect x="478.277" y="728.8" width="0.647" height="2.391" style="fill:rgb(161,155,154);"/>
        </g>
        <g transform="matrix(1,0,0,1,1062.4,-75.9507)">
            <path d="M0,-1.004C-0.04,-1.316 -0.339,-1.35 -0.601,-1.35C-0.868,-1.35 -1.041,-1.229 -1.041,-1.068C-1.041,-0.941 -0.934,-0.871 -0.767,-0.844L0.047,-0.713C0.482,-0.643 0.815,-0.479 0.815,-0.044C0.815,0.402 0.512,0.761 -0.429,0.761C-1.01,0.761 -1.769,0.687 -1.774,-0.06L-1.045,-0.06C-1.039,0.269 -0.711,0.325 -0.429,0.325C-0.123,0.325 0.084,0.235 0.084,0.027C0.084,-0.157 -0.064,-0.208 -0.321,-0.248L-0.914,-0.338C-1.328,-0.402 -1.731,-0.525 -1.731,-1.015C-1.731,-1.547 -1.296,-1.765 -0.545,-1.765C-0.053,-1.765 0.676,-1.681 0.72,-1.004L0,-1.004Z" style="fill:rgb(161,155,154);fill-rule:nonzero;"/>
        </g>
        <g transform="matrix(1,0,0,1,581.4,-806.448)">
            <rect x="482.111" y="728.8" width="0.648" height="2.391" style="fill:rgb(161,155,154);"/>
        </g>
        <g transform="matrix(1,0,0,1,1065.97,-75.1895)">
            <path d="M0,-2.526C1.286,-2.526 1.487,-1.762 1.487,-1.264C1.487,-0.764 1.286,0 0,0C-1.285,0 -1.486,-0.764 -1.486,-1.264C-1.486,-1.762 -1.285,-2.526 0,-2.526M0,-0.456C0.589,-0.456 0.796,-0.892 0.796,-1.264C0.796,-1.635 0.589,-2.071 0,-2.071C-0.588,-2.071 -0.796,-1.635 -0.796,-1.264C-0.796,-0.892 -0.588,-0.456 0,-0.456" style="fill:rgb(161,155,154);fill-rule:nonzero;"/>
        </g>
        <g transform="matrix(1,0,0,1,1069.79,-75.2574)">
            <path d="M0,-2.391L0.63,-2.391L0.63,0L-0.075,0L-1.38,-1.668L-1.387,-1.668L-1.387,0L-2.016,0L-2.016,-2.391L-1.263,-2.391L-0.007,-0.723L0,-0.723L0,-2.391Z" style="fill:rgb(161,155,154);fill-rule:nonzero;"/>
        </g>
        <g transform="matrix(1,0,0,1,1070.88,-75.2574)">
            <path d="M0,-2.391L2.235,-2.391L2.235,-1.936L0.647,-1.936L0.647,-1.44L2.154,-1.44L2.154,-1.004L0.647,-1.004L0.647,-0.455L2.246,-0.455L2.246,0L0,0L0,-2.391Z" style="fill:rgb(161,155,154);fill-rule:nonzero;"/>
        </g>
        <g transform="matrix(1,0,0,1,1075.1,-75.9507)">
            <path d="M0,-1.004C-0.041,-1.316 -0.339,-1.35 -0.6,-1.35C-0.868,-1.35 -1.043,-1.229 -1.043,-1.068C-1.043,-0.941 -0.935,-0.871 -0.768,-0.844L0.046,-0.713C0.482,-0.643 0.814,-0.479 0.814,-0.044C0.814,0.402 0.512,0.761 -0.43,0.761C-1.011,0.761 -1.769,0.687 -1.774,-0.06L-1.046,-0.06C-1.04,0.269 -0.711,0.325 -0.43,0.325C-0.124,0.325 0.082,0.235 0.082,0.027C0.082,-0.157 -0.064,-0.208 -0.322,-0.248L-0.915,-0.338C-1.33,-0.402 -1.731,-0.525 -1.731,-1.015C-1.731,-1.547 -1.297,-1.765 -0.546,-1.765C-0.053,-1.765 0.676,-1.681 0.72,-1.004L0,-1.004Z" style="fill:rgb(161,155,154);fill-rule:nonzero;"/>
        </g>
        <g transform="matrix(1,0,0,1,1077.46,-75.2574)">
            <path d="M0,-2.391L2.136,-2.391L2.136,-1.936L0.649,-1.936L0.649,-1.413L2.043,-1.413L2.043,-0.958L0.649,-0.958L0.649,0L0,0L0,-2.391Z" style="fill:rgb(161,155,154);fill-rule:nonzero;"/>
        </g>
        <g transform="matrix(1,0,0,1,581.4,-806.448)">
            <rect x="498.475" y="728.8" width="0.647" height="2.391" style="fill:rgb(161,155,154);"/>
        </g>
        <g transform="matrix(1,0,0,1,1080.98,-75.2574)">
            <path d="M0,-2.391L1.737,-2.391C2.401,-2.391 2.513,-1.987 2.513,-1.742C2.513,-1.45 2.394,-1.262 2.123,-1.166L2.123,-1.158C2.409,-1.115 2.451,-0.754 2.451,-0.518C2.451,-0.402 2.461,-0.12 2.578,0L1.865,0C1.805,-0.11 1.801,-0.208 1.801,-0.458C1.801,-0.795 1.658,-0.877 1.456,-0.877L0.647,-0.877L0.647,0L0,0L0,-2.391ZM0.647,-1.332L1.511,-1.332C1.655,-1.332 1.821,-1.413 1.821,-1.638C1.821,-1.875 1.635,-1.936 1.477,-1.936L0.647,-1.936L0.647,-1.332Z" style="fill:rgb(161,155,154);fill-rule:nonzero;"/>
        </g>
        <g transform="matrix(1,0,0,1,1086.21,-75.2574)">
            <path d="M0,-2.391L0.954,-2.391L0.954,0L0.327,0L0.327,-1.915L0.317,-1.915L-0.439,0L-0.982,0L-1.738,-1.915L-1.745,-1.915L-1.745,0L-2.374,0L-2.374,-2.391L-1.42,-2.391L-0.711,-0.67L0,-2.391Z" style="fill:rgb(161,155,154);fill-rule:nonzero;"/>
        </g>
        <g transform="matrix(1,0,0,1,1087.62,-75.2574)">
            <path d="M0,-2.391L2.236,-2.391L2.236,-1.936L0.651,-1.936L0.651,-1.44L2.154,-1.44L2.154,-1.004L0.651,-1.004L0.651,-0.455L2.247,-0.455L2.247,0L0,0L0,-2.391Z" style="fill:rgb(161,155,154);fill-rule:nonzero;"/>
        </g>
        <g transform="matrix(1,0,0,1,1091.84,-75.9507)">
            <path d="M0,-1.004C-0.039,-1.316 -0.339,-1.35 -0.599,-1.35C-0.868,-1.35 -1.041,-1.229 -1.041,-1.068C-1.041,-0.941 -0.934,-0.871 -0.767,-0.844L0.047,-0.713C0.482,-0.643 0.816,-0.479 0.816,-0.044C0.816,0.402 0.512,0.761 -0.428,0.761C-1.011,0.761 -1.769,0.687 -1.774,-0.06L-1.045,-0.06C-1.038,0.269 -0.71,0.325 -0.428,0.325C-0.123,0.325 0.085,0.235 0.085,0.027C0.085,-0.157 -0.064,-0.208 -0.321,-0.248L-0.914,-0.338C-1.329,-0.402 -1.73,-0.525 -1.73,-1.015C-1.73,-1.547 -1.295,-1.765 -0.546,-1.765C-0.053,-1.765 0.677,-1.681 0.72,-1.004L0,-1.004Z" style="fill:rgb(161,155,154);fill-rule:nonzero;"/>
        </g>
        <g transform="matrix(1,0,0,1,1093.02,-74.6444)">
            <path d="M0,-1.182L0.649,-1.182L0.649,-0.754C0.649,-0.324 0.435,-0.057 0,0L0,-0.234C0.217,-0.295 0.285,-0.388 0.301,-0.612L0,-0.612L0,-1.182Z" style="fill:rgb(161,155,154);fill-rule:nonzero;"/>
        </g>
        <g transform="matrix(1,0,0,1,1095.43,-75.2574)">
            <path d="M0,-2.391L1.739,-2.391C2.402,-2.391 2.514,-1.987 2.514,-1.742C2.514,-1.45 2.395,-1.262 2.124,-1.166L2.124,-1.158C2.409,-1.115 2.451,-0.754 2.451,-0.518C2.451,-0.402 2.462,-0.12 2.578,0L1.866,0C1.806,-0.11 1.803,-0.208 1.803,-0.458C1.803,-0.795 1.659,-0.877 1.457,-0.877L0.65,-0.877L0.65,0L0,0L0,-2.391ZM0.65,-1.332L1.512,-1.332C1.655,-1.332 1.822,-1.413 1.822,-1.638C1.822,-1.875 1.635,-1.936 1.478,-1.936L0.65,-1.936L0.65,-1.332Z" style="fill:rgb(161,155,154);fill-rule:nonzero;"/>
        </g>
        <g transform="matrix(1,0,0,1,1098.29,-75.2574)">
            <path d="M0,-2.391L2.234,-2.391L2.234,-1.936L0.648,-1.936L0.648,-1.44L2.154,-1.44L2.154,-1.004L0.648,-1.004L0.648,-0.455L2.246,-0.455L2.246,0L0,0L0,-2.391Z" style="fill:rgb(161,155,154);fill-rule:nonzero;"/>
        </g>
        <g transform="matrix(1,0,0,1,1102.51,-75.9507)">
            <path d="M0,-1.004C-0.04,-1.316 -0.338,-1.35 -0.601,-1.35C-0.868,-1.35 -1.042,-1.229 -1.042,-1.068C-1.042,-0.941 -0.935,-0.871 -0.768,-0.844L0.048,-0.713C0.481,-0.643 0.815,-0.479 0.815,-0.044C0.815,0.402 0.513,0.761 -0.429,0.761C-1.011,0.761 -1.769,0.687 -1.774,-0.06L-1.045,-0.06C-1.038,0.269 -0.711,0.325 -0.429,0.325C-0.124,0.325 0.084,0.235 0.084,0.027C0.084,-0.157 -0.064,-0.208 -0.321,-0.248L-0.915,-0.338C-1.329,-0.402 -1.731,-0.525 -1.731,-1.015C-1.731,-1.547 -1.296,-1.765 -0.547,-1.765C-0.053,-1.765 0.676,-1.681 0.72,-1.004L0,-1.004Z" style="fill:rgb(161,155,154);fill-rule:nonzero;"/>
        </g>
        <g transform="matrix(1,0,0,1,1103.6,-75.1904)">
            <path d="M0,-2.458L0.649,-2.458L0.649,-1.085C0.649,-0.851 0.66,-0.455 1.256,-0.455C1.854,-0.455 1.862,-0.851 1.862,-1.085L1.862,-2.458L2.513,-2.458L2.513,-0.925C2.513,-0.657 2.479,0 1.256,0C0.032,0 0,-0.657 0,-0.925L0,-2.458Z" style="fill:rgb(161,155,154);fill-rule:nonzero;"/>
        </g>
        <g transform="matrix(1,0,0,1,1106.54,-75.2574)">
            <path d="M0,-2.391L0.649,-2.391L0.649,-0.476L2.108,-0.476L2.108,0L0,0L0,-2.391Z" style="fill:rgb(161,155,154);fill-rule:nonzero;"/>
        </g>
        <g transform="matrix(1,0,0,1,1109.3,-75.712)">
            <path d="M0,-1.481L-0.888,-1.481L-0.888,-1.936L1.538,-1.936L1.538,-1.481L0.649,-1.481L0.649,0.455L0,0.455L0,-1.481Z" style="fill:rgb(161,155,154);fill-rule:nonzero;"/>
        </g>
        <g transform="matrix(1,0,0,1,1112.66,-77.1558)">
            <path d="M0,1.406L-1.098,1.406L-1.293,1.899L-1.993,1.899L-0.941,-0.493L-0.159,-0.493L0.894,1.899L0.195,1.899L0,1.406ZM-0.549,0.023L-0.923,0.971L-0.174,0.971L-0.549,0.023Z" style="fill:rgb(161,155,154);fill-rule:nonzero;"/>
        </g>
        <g transform="matrix(1,0,0,1,1113.74,-75.2574)">
            <path d="M0,-2.391L1.49,-2.391C2.311,-2.391 2.665,-1.915 2.665,-1.196C2.665,-0.476 2.298,0 1.547,0L0,0L0,-2.391ZM0.649,-0.455L1.373,-0.455C1.801,-0.455 1.996,-0.713 1.996,-1.219C1.996,-1.661 1.808,-1.936 1.313,-1.936L0.649,-1.936L0.649,-0.455Z" style="fill:rgb(161,155,154);fill-rule:nonzero;"/>
        </g>
        <g transform="matrix(1,0,0,1,1118.13,-75.1895)">
            <path d="M0,-2.526C1.286,-2.526 1.487,-1.762 1.487,-1.264C1.487,-0.764 1.286,0 0,0C-1.285,0 -1.487,-0.764 -1.487,-1.264C-1.487,-1.762 -1.285,-2.526 0,-2.526M0,-0.456C0.589,-0.456 0.796,-0.892 0.796,-1.264C0.796,-1.635 0.589,-2.071 0,-2.071C-0.589,-2.071 -0.796,-1.635 -0.796,-1.264C-0.796,-0.892 -0.589,-0.456 0,-0.456" style="fill:rgb(161,155,154);fill-rule:nonzero;"/>
        </g>
        <g transform="matrix(1,0,0,1,1121.55,-75.9507)">
            <path d="M0,-1.004C-0.039,-1.316 -0.338,-1.35 -0.6,-1.35C-0.867,-1.35 -1.041,-1.229 -1.041,-1.068C-1.041,-0.941 -0.935,-0.871 -0.767,-0.844L0.048,-0.713C0.482,-0.643 0.816,-0.479 0.816,-0.044C0.816,0.402 0.513,0.761 -0.428,0.761C-1.01,0.761 -1.769,0.687 -1.774,-0.06L-1.045,-0.06C-1.039,0.269 -0.711,0.325 -0.428,0.325C-0.124,0.325 0.084,0.235 0.084,0.027C0.084,-0.157 -0.063,-0.208 -0.322,-0.248L-0.914,-0.338C-1.329,-0.402 -1.73,-0.525 -1.73,-1.015C-1.73,-1.547 -1.296,-1.765 -0.544,-1.765C-0.053,-1.765 0.677,-1.681 0.72,-1.004L0,-1.004Z" style="fill:rgb(161,155,154);fill-rule:nonzero;"/>
        </g>
        <g transform="matrix(1,0,0,1,1123.91,-75.2574)">
            <path d="M0,-2.391L2.136,-2.391L2.136,-1.936L0.649,-1.936L0.649,-1.413L2.043,-1.413L2.043,-0.958L0.649,-0.958L0.649,0L0,0L0,-2.391Z" style="fill:rgb(161,155,154);fill-rule:nonzero;"/>
        </g>
        <g transform="matrix(1,0,0,1,1126.3,-75.1904)">
            <path d="M0,-2.458L0.649,-2.458L0.649,-1.085C0.649,-0.851 0.659,-0.455 1.255,-0.455C1.852,-0.455 1.861,-0.851 1.861,-1.085L1.861,-2.458L2.513,-2.458L2.513,-0.925C2.513,-0.657 2.478,0 1.255,0C0.032,0 0,-0.657 0,-0.925L0,-2.458Z" style="fill:rgb(161,155,154);fill-rule:nonzero;"/>
        </g>
        <g transform="matrix(1,0,0,1,1129.24,-75.2574)">
            <path d="M0,-2.391L2.234,-2.391L2.234,-1.936L0.649,-1.936L0.649,-1.44L2.154,-1.44L2.154,-1.004L0.649,-1.004L0.649,-0.455L2.247,-0.455L2.247,0L0,0L0,-2.391Z" style="fill:rgb(161,155,154);fill-rule:nonzero;"/>
        </g>
        <g transform="matrix(1,0,0,1,1131.85,-75.2574)">
            <path d="M0,-2.391L1.737,-2.391C2.401,-2.391 2.512,-1.987 2.512,-1.742C2.512,-1.45 2.394,-1.262 2.123,-1.166L2.123,-1.158C2.408,-1.115 2.451,-0.754 2.451,-0.518C2.451,-0.402 2.46,-0.12 2.576,0L1.864,0C1.804,-0.11 1.801,-0.208 1.801,-0.458C1.801,-0.795 1.658,-0.877 1.455,-0.877L0.647,-0.877L0.647,0L0,0L0,-2.391ZM0.647,-1.332L1.51,-1.332C1.655,-1.332 1.821,-1.413 1.821,-1.638C1.821,-1.875 1.634,-1.936 1.475,-1.936L0.647,-1.936L0.647,-1.332Z" style="fill:rgb(161,155,154);fill-rule:nonzero;"/>
        </g>
        <g transform="matrix(1,0,0,1,1135.36,-75.712)">
            <path d="M0,-1.481L-0.886,-1.481L-0.886,-1.936L1.539,-1.936L1.539,-1.481L0.649,-1.481L0.649,0.455L0,0.455L0,-1.481Z" style="fill:rgb(161,155,154);fill-rule:nonzero;"/>
        </g>
        <g transform="matrix(1,0,0,1,1137.12,-75.2574)">
            <path d="M0,-2.391L2.233,-2.391L2.233,-1.936L0.649,-1.936L0.649,-1.44L2.154,-1.44L2.154,-1.004L0.649,-1.004L0.649,-0.455L2.247,-0.455L2.247,0L0,0L0,-2.391Z" style="fill:rgb(161,155,154);fill-rule:nonzero;"/>
        </g>
        <g transform="matrix(1,0,0,1,1141.34,-75.9507)">
            <path d="M0,-1.004C-0.041,-1.316 -0.338,-1.35 -0.6,-1.35C-0.868,-1.35 -1.042,-1.229 -1.042,-1.068C-1.042,-0.941 -0.935,-0.871 -0.767,-0.844L0.047,-0.713C0.481,-0.643 0.815,-0.479 0.815,-0.044C0.815,0.402 0.512,0.761 -0.429,0.761C-1.01,0.761 -1.769,0.687 -1.774,-0.06L-1.045,-0.06C-1.039,0.269 -0.711,0.325 -0.429,0.325C-0.124,0.325 0.083,0.235 0.083,0.027C0.083,-0.157 -0.064,-0.208 -0.321,-0.248L-0.914,-0.338C-1.328,-0.402 -1.73,-0.525 -1.73,-1.015C-1.73,-1.547 -1.297,-1.765 -0.546,-1.765C-0.053,-1.765 0.677,-1.681 0.72,-1.004L0,-1.004Z" style="fill:rgb(161,155,154);fill-rule:nonzero;"/>
        </g>
        <g transform="matrix(1,0,0,1,581.4,-804.627)">
            <rect x="561.121" y="728.8" width="0.647" height="0.57" style="fill:rgb(161,155,154);"/>
        </g>
        <g transform="matrix(1,0,0,1,987.759,-77.8555)">
            <path d="M0,-12.434L-0.991,-8.401L-1.28,-8.401C-1.345,-9.032 -1.458,-9.538 -1.622,-9.917C-1.868,-10.467 -2.194,-10.891 -2.6,-11.189C-3.006,-11.487 -3.446,-11.636 -3.919,-11.636C-4.375,-11.636 -4.774,-11.462 -5.116,-11.114C-5.458,-10.767 -5.629,-10.373 -5.629,-9.935C-5.629,-9.502 -5.511,-9.077 -5.274,-8.659C-5.037,-8.241 -4.478,-7.611 -3.595,-6.77C-2.888,-6.097 -2.413,-5.519 -2.17,-5.033C-1.928,-4.548 -1.806,-4.022 -1.806,-3.455C-1.806,-2.818 -1.976,-2.231 -2.315,-1.693C-2.654,-1.155 -3.146,-0.738 -3.792,-0.443C-4.438,-0.148 -5.17,0 -5.989,0C-6.492,0 -7.124,-0.075 -7.887,-0.224C-8.65,-0.373 -9.157,-0.448 -9.409,-0.448C-9.607,-0.448 -9.786,-0.417 -9.943,-0.356C-10.101,-0.294 -10.297,-0.176 -10.531,0L-10.873,0L-9.812,-4.534L-9.479,-4.534C-9.403,-3.739 -9.242,-3.062 -8.996,-2.504C-8.751,-1.946 -8.4,-1.51 -7.944,-1.197C-7.488,-0.885 -6.968,-0.728 -6.383,-0.728C-5.805,-0.728 -5.321,-0.92 -4.932,-1.303C-4.544,-1.685 -4.349,-2.134 -4.349,-2.648C-4.349,-3.087 -4.459,-3.508 -4.678,-3.911C-4.897,-4.314 -5.397,-4.902 -6.177,-5.674C-6.958,-6.445 -7.497,-7.135 -7.795,-7.743C-8.011,-8.193 -8.12,-8.672 -8.12,-9.181C-8.12,-10.064 -7.772,-10.826 -7.076,-11.47C-6.38,-12.113 -5.472,-12.434 -4.349,-12.434C-3.841,-12.434 -3.171,-12.32 -2.341,-12.092C-1.856,-11.958 -1.514,-11.89 -1.315,-11.89C-1.146,-11.89 -0.994,-11.927 -0.859,-12C-0.725,-12.073 -0.567,-12.218 -0.386,-12.434L0,-12.434Z" style="fill:rgb(118,113,115);fill-rule:nonzero;"/>
        </g>
        <g transform="matrix(1,0,0,1,994.054,-78.7861)">
            <path d="M0,-10.574L-1.324,-5.962L-0.921,-5.962C0.143,-5.962 0.919,-6.102 1.407,-6.383C1.895,-6.663 2.309,-7.16 2.648,-7.873L2.973,-7.873L1.64,-3.244L1.333,-3.244C1.385,-3.553 1.412,-3.805 1.412,-3.998C1.412,-4.319 1.317,-4.582 1.127,-4.787C0.937,-4.991 0.69,-5.138 0.386,-5.225C0.187,-5.284 -0.225,-5.313 -0.851,-5.313L-1.534,-5.313L-2.674,-1.323C-2.774,-0.973 -2.823,-0.712 -2.823,-0.543C-2.823,-0.408 -2.759,-0.3 -2.631,-0.219C-2.443,-0.102 -2.09,-0.043 -1.57,-0.043C-0.57,-0.043 0.371,-0.255 1.254,-0.679C2.137,-1.103 2.929,-1.744 3.63,-2.604L3.99,-2.604L2.753,0.658L-7.418,0.658L-7.313,0.334C-6.717,0.334 -6.281,0.221 -6.006,-0.004C-5.732,-0.229 -5.483,-0.724 -5.261,-1.49L-3.025,-9.145C-2.902,-9.571 -2.841,-9.908 -2.841,-10.153C-2.841,-10.375 -2.92,-10.546 -3.078,-10.666C-3.236,-10.786 -3.595,-10.866 -4.156,-10.907L-4.06,-11.232L5.419,-11.232L4.656,-8.259L4.34,-8.259C4.317,-8.844 4.226,-9.256 4.069,-9.496C3.823,-9.87 3.497,-10.143 3.091,-10.315C2.685,-10.488 2.026,-10.574 1.114,-10.574L0,-10.574Z" style="fill:rgb(118,113,115);fill-rule:nonzero;"/>
        </g>
        <g transform="matrix(1,0,0,1,1001.73,-78.4513)">
            <path d="M0,-11.242L0.096,-11.566L5.901,-11.566L5.787,-11.242C5.261,-11.242 4.859,-11.125 4.582,-10.891C4.304,-10.657 4.06,-10.169 3.849,-9.427L1.675,-1.816C1.517,-1.278 1.438,-0.919 1.438,-0.737C1.438,-0.527 1.52,-0.363 1.684,-0.246C1.894,-0.094 2.292,-0.013 2.876,-0.001L2.788,0.324L-3.113,0.324L-3.016,-0.001C-2.426,-0.001 -1.993,-0.113 -1.719,-0.338C-1.444,-0.564 -1.195,-1.056 -0.973,-1.816L1.219,-9.427C1.353,-9.895 1.421,-10.248 1.421,-10.488C1.421,-10.704 1.339,-10.874 1.175,-10.997C1.011,-11.119 0.62,-11.201 0,-11.242" style="fill:rgb(118,113,115);fill-rule:nonzero;"/>
        </g>
        <g transform="matrix(1,0,0,1,1013.02,-78.7861)">
            <path d="M0,-10.574L-1.324,-5.962L-0.921,-5.962C0.143,-5.962 0.919,-6.102 1.407,-6.383C1.895,-6.663 2.309,-7.16 2.648,-7.873L2.973,-7.873L1.64,-3.244L1.333,-3.244C1.385,-3.553 1.412,-3.805 1.412,-3.998C1.412,-4.319 1.317,-4.582 1.127,-4.787C0.937,-4.991 0.69,-5.138 0.386,-5.225C0.187,-5.284 -0.225,-5.313 -0.851,-5.313L-1.534,-5.313L-2.674,-1.323C-2.774,-0.973 -2.823,-0.712 -2.823,-0.543C-2.823,-0.408 -2.759,-0.3 -2.631,-0.219C-2.443,-0.102 -2.09,-0.043 -1.57,-0.043C-0.57,-0.043 0.371,-0.255 1.254,-0.679C2.137,-1.103 2.929,-1.744 3.63,-2.604L3.99,-2.604L2.753,0.658L-7.418,0.658L-7.313,0.334C-6.717,0.334 -6.281,0.221 -6.006,-0.004C-5.732,-0.229 -5.483,-0.724 -5.261,-1.49L-3.025,-9.145C-2.902,-9.571 -2.841,-9.908 -2.841,-10.153C-2.841,-10.375 -2.92,-10.546 -3.078,-10.666C-3.236,-10.786 -3.595,-10.866 -4.156,-10.907L-4.06,-11.232L5.419,-11.232L4.656,-8.259L4.34,-8.259C4.317,-8.844 4.226,-9.256 4.069,-9.496C3.823,-9.87 3.497,-10.143 3.091,-10.315C2.685,-10.488 2.026,-10.574 1.114,-10.574L0,-10.574Z" style="fill:rgb(118,113,115);fill-rule:nonzero;"/>
        </g>
        <g transform="matrix(1,0,0,1,1025.01,-78.1277)">
            <path d="M0,-11.89L0.877,-3.718L6.532,-11.89L10.697,-11.89L10.592,-11.566C10.019,-11.566 9.584,-11.443 9.286,-11.197C8.988,-10.952 8.733,-10.467 8.523,-9.742L6.331,-2.131C6.191,-1.651 6.12,-1.295 6.12,-1.061C6.12,-0.845 6.208,-0.671 6.383,-0.539C6.559,-0.408 6.904,-0.336 7.418,-0.324L7.339,0L1.403,0L1.508,-0.324C2.145,-0.324 2.616,-0.446 2.92,-0.688C3.224,-0.931 3.481,-1.412 3.691,-2.131L5.927,-9.838L-0.877,0L-1.236,0L-2.306,-10.031L-4.577,-2.131C-4.671,-1.809 -4.717,-1.54 -4.717,-1.324C-4.717,-1.032 -4.617,-0.796 -4.415,-0.618C-4.213,-0.44 -3.87,-0.342 -3.385,-0.324L-3.472,0L-7.401,0L-7.322,-0.324C-6.848,-0.342 -6.486,-0.441 -6.234,-0.623C-5.79,-0.95 -5.469,-1.453 -5.27,-2.131L-2.701,-10.917C-2.946,-11.186 -3.167,-11.361 -3.363,-11.443C-3.559,-11.525 -3.887,-11.566 -4.349,-11.566L-4.244,-11.89L0,-11.89Z" style="fill:rgb(118,113,115);fill-rule:nonzero;"/>
        </g>
        <g transform="matrix(1,0,0,1,581.4,-821.648)">
            <rect x="460.858" y="728.8" width="0.592" height="17.591" style="fill:rgb(118,113,115);"/>
        </g>
    </g>
</svg>
